<svg width="14" height="16" viewBox="0 0 14 16" fill="none" xmlns="http://www.w3.org/2000/svg">
<path fill-rule="evenodd" clip-rule="evenodd" d="M12.3813 0.0931214C13.4348 0.425272 14.0195 1.54852 13.6874 2.60197L13.1889 4.18287L12.5211 5.79498L11.7154 7.34276L10.7779 8.81443L9.71562 10.1988L8.53675 11.4853L7.25024 12.6642L5.86589 13.7264L4.39422 14.664L2.92389 15.4294C1.94413 15.9394 0.736407 15.5586 0.226374 14.5788C-0.283659 13.5991 0.0971338 12.3914 1.0769 11.8813L2.39231 11.1966L3.5694 10.4467L4.67665 9.59706L5.70563 8.65418L6.64852 7.62519L7.49814 6.51794L8.24802 5.34086L8.89246 4.1029L9.42656 2.81348L9.8725 1.39914C10.2046 0.345696 11.3279 -0.239029 12.3813 0.0931214Z" fill="#6750A4"/>
</svg>
