<svg width="56" height="56" viewBox="0 0 56 56" fill="none" xmlns="http://www.w3.org/2000/svg">
<g clip-path="url(#clip0_25_167)">
<path d="M0 16C0 7.16344 7.16344 0 16 0H40C48.8366 0 56 7.16344 56 16V40C56 48.8366 48.8366 56 40 56H16C7.16344 56 0 48.8366 0 40V16Z" fill="#EADDFF"/>
<path d="M27 33H23C21.6167 33 20.4375 32.5125 19.4625 31.5375C18.4875 30.5625 18 29.3833 18 28C18 26.6167 18.4875 25.4375 19.4625 24.4625C20.4375 23.4875 21.6167 23 23 23H27V25H23C22.1667 25 21.4583 25.2917 20.875 25.875C20.2917 26.4583 20 27.1667 20 28C20 28.8333 20.2917 29.5417 20.875 30.125C21.4583 30.7083 22.1667 31 23 31H27V33ZM24 29V27H32V29H24ZM29 33V31H33C33.8333 31 34.5417 30.7083 35.125 30.125C35.7083 29.5417 36 28.8333 36 28C36 27.1667 35.7083 26.4583 35.125 25.875C34.5417 25.2917 33.8333 25 33 25H29V23H33C34.3833 23 35.5625 23.4875 36.5375 24.4625C37.5125 25.4375 38 26.6167 38 28C38 29.3833 37.5125 30.5625 36.5375 31.5375C35.5625 32.5125 34.3833 33 33 33H29Z" fill="#1D1B20"/>
</g>
<defs>
<clipPath id="clip0_25_167">
<path d="M0 16C0 7.16344 7.16344 0 16 0H40C48.8366 0 56 7.16344 56 16V40C56 48.8366 48.8366 56 40 56H16C7.16344 56 0 48.8366 0 40V16Z" fill="white"/>
</clipPath>
</defs>
</svg>
