<svg width="56" height="56" viewBox="0 0 56 56" fill="none" xmlns="http://www.w3.org/2000/svg">
<g clip-path="url(#clip0_18_7867)">
<path d="M0 16C0 7.16344 7.16344 0 16 0H40C48.8366 0 56 7.16344 56 16V40C56 48.8366 48.8366 56 40 56H16C7.16344 56 0 48.8366 0 40V16Z" fill="#EADDFF"/>
<path d="M27 32V23.85L24.4 26.45L23 25L28 20L33 25L31.6 26.45L29 23.85V32H27ZM22 36C21.45 36 20.9792 35.8042 20.5875 35.4125C20.1958 35.0208 20 34.55 20 34V31H22V34H34V31H36V34C36 34.55 35.8042 35.0208 35.4125 35.4125C35.0208 35.8042 34.55 36 34 36H22Z" fill="#1D1B20"/>
</g>
<defs>
<clipPath id="clip0_18_7867">
<path d="M0 16C0 7.16344 7.16344 0 16 0H40C48.8366 0 56 7.16344 56 16V40C56 48.8366 48.8366 56 40 56H16C7.16344 56 0 48.8366 0 40V16Z" fill="white"/>
</clipPath>
</defs>
</svg>
