<svg width="24" height="24" viewBox="0 0 24 24" fill="none" xmlns="http://www.w3.org/2000/svg">
<g clip-path="url(#clip0_303_613)">
<g clip-path="url(#clip1_303_613)">
<path d="M12.652 6.896C11.704 6.896 10.237 5.818 8.69199 5.856C6.65199 5.883 4.78199 7.039 3.73099 8.87C1.61399 12.545 3.18499 17.973 5.24999 20.96C6.26299 22.414 7.45799 24.05 9.04199 23.999C10.562 23.934 11.132 23.012 12.977 23.012C14.808 23.012 15.327 23.999 16.937 23.96C18.574 23.934 19.613 22.48 20.613 21.012C21.769 19.324 22.249 17.687 22.275 17.597C22.236 17.584 19.093 16.376 19.055 12.74C19.029 9.7 21.535 8.246 21.652 8.181C20.223 6.091 18.029 5.857 17.262 5.805C15.262 5.649 13.587 6.896 12.652 6.896ZM16.03 3.83C16.873 2.818 17.43 1.403 17.275 0C16.068 0.052 14.613 0.805 13.743 1.818C12.963 2.714 12.289 4.156 12.47 5.532C13.808 5.636 15.185 4.844 16.029 3.831" fill="black"/>
</g>
</g>
<defs>
<clipPath id="clip0_303_613">
<rect width="24" height="24" fill="white"/>
</clipPath>
<clipPath id="clip1_303_613">
<rect width="24" height="24" fill="white" transform="translate(0.5)"/>
</clipPath>
</defs>
</svg>
