<svg width="40" height="40" viewBox="0 0 40 40" fill="none" xmlns="http://www.w3.org/2000/svg">
<path fill-rule="evenodd" clip-rule="evenodd" d="M38.1613 18.8288C37.083 19.0679 36.0149 18.3875 35.7759 17.3091L35.4549 15.8613L35.0352 14.5302L34.5011 13.2408L33.8567 12.0029L33.1068 10.8258L32.2572 9.71854L31.3143 8.68956L30.2853 7.74667L29.1781 6.89705L28.001 6.14716L26.763 5.50272L25.4736 4.96863L24.1425 4.54894L22.78 4.24687L21.3962 4.0647L20.0019 4.00382L18.6076 4.0647L17.2239 4.24687L15.8613 4.54895L14.5303 4.96862L13.2408 5.50272L12.0029 6.14716L10.8258 6.89705L9.71854 7.74667L8.68956 8.68956L7.74667 9.71854L6.89705 10.8258L6.14717 12.0029L5.50272 13.2408L4.96864 14.5302L4.54895 15.8613L4.24688 17.2239L4.06471 18.6076L4.00383 20.0019L4.0647 21.3962L4.24688 22.78L4.54895 24.1425L4.96863 25.4736L5.50272 26.763L6.14717 28.001L6.89705 29.178L7.74667 30.2853L8.68957 31.3143L9.71855 32.2572L10.8258 33.1068L12.0029 33.8567L13.2408 34.5011L14.5302 35.0352L15.8613 35.4549L17.2239 35.757L18.6076 35.9391L20.0892 36.0038C21.1927 36.052 22.0482 36.9856 22 38.0892C21.9518 39.1927 21.0182 40.0482 19.9147 40L18.2586 39.9277L16.5286 39.6999L14.825 39.3223L13.1609 38.7976L11.5488 38.1298L10.001 37.3241L8.5293 36.3865L7.14495 35.3243L5.85844 34.1454L4.67957 32.8589L3.61732 31.4745L2.67976 30.0029L1.87404 28.4551L1.20628 26.843L0.681568 25.1788L0.303891 23.4752L0.076129 21.7452L1.6348e-05 20.0019L0.0761336 18.2586L0.303893 16.5286L0.681569 14.825L1.20628 13.1609L1.87404 11.5487L2.67976 10.001L3.61732 8.5293L4.67958 7.14494L5.85844 5.85843L7.14494 4.67957L8.5293 3.61732L10.001 2.67976L11.5488 1.87404L13.1609 1.20628L14.825 0.681562L16.5286 0.303887L18.2586 0.0761254L20.0019 1.24469e-05L21.7452 0.0761253L23.4752 0.303886L25.1788 0.68156L26.843 1.20628L28.4551 1.87403L30.0029 2.67976L31.4745 3.61732L32.8589 4.67957L34.1454 5.85843L35.3243 7.14494L36.3865 8.5293L37.3241 10.001L38.1298 11.5487L38.7976 13.1609L39.3223 14.825L39.6811 16.4434C39.9201 17.5218 39.2397 18.5898 38.1613 18.8288Z" fill="#E8DEF8"/>
</svg>
