<svg width="36" height="40" viewBox="0 0 36 40" fill="none" xmlns="http://www.w3.org/2000/svg">
<g clip-path="url(#clip0_334_38)">
<path d="M7.25 27V25H9.25V18C9.25 16.6167 9.66667 15.3917 10.5 14.325C11.3333 13.2417 12.4167 12.5333 13.75 12.2V11.5C13.75 11.0833 13.8917 10.7333 14.175 10.45C14.475 10.15 14.8333 10 15.25 10C15.6667 10 16.0167 10.15 16.3 10.45C16.6 10.7333 16.75 11.0833 16.75 11.5V12.2C18.0833 12.5333 19.1667 13.2417 20 14.325C20.8333 15.3917 21.25 16.6167 21.25 18V25H23.25V27H7.25ZM15.25 30C14.7 30 14.225 29.8083 13.825 29.425C13.4417 29.025 13.25 28.55 13.25 28H17.25C17.25 28.55 17.05 29.025 16.65 29.425C16.2667 29.8083 15.8 30 15.25 30ZM11.25 25H19.25V18C19.25 16.9 18.8583 15.9583 18.075 15.175C17.2917 14.3917 16.35 14 15.25 14C14.15 14 13.2083 14.3917 12.425 15.175C11.6417 15.9583 11.25 16.9 11.25 18V25Z" fill="#49454F"/>
</g>
<defs>
<clipPath id="clip0_334_38">
<rect x="-4.75" width="40" height="40" rx="20" fill="white"/>
</clipPath>
</defs>
</svg>
